<svg width="63" height="99" viewBox="0 0 63 99" fill="none" xmlns="http://www.w3.org/2000/svg">
<path d="M58.0581 35.3208C56.53 43.9871 53.2002 51.9295 48.0688 59.1481C42.9373 66.3667 36.7457 72.6876 29.4938 78.1107C22.0102 83.6961 14.2079 88.2098 6.08678 91.6518L1.87992 82.6851C9.9777 78.2235 16.7431 73.8316 22.1762 69.5094C27.3776 65.3494 32.3471 59.6253 37.0846 52.3373L29.8712 43.145C26.001 38.604 23.5906 34.4219 22.64 30.5988C21.6895 26.7756 21.5441 22.9929 22.204 19.2506C23.2459 13.3418 25.603 9.18798 29.2753 6.78923C32.9129 4.58744 37.3907 3.9554 42.7086 4.8931C45.6631 5.41404 48.4496 6.31155 51.0681 7.58561C53.4549 9.0219 55.6391 11.0317 57.6206 13.6151C59.1973 20.798 59.3431 28.0332 58.0581 35.3208Z" fill="#FFC659"/>
</svg>
