<svg width="32" height="62" viewBox="0 0 32 62" fill="none" xmlns="http://www.w3.org/2000/svg">
<path d="M0.384375 43.8035C0.384375 37.9368 1.65104 32.3368 4.18438 27.0035C6.71771 21.6702 10.051 16.8035 14.1844 12.4035C18.451 7.87018 23.051 4.00351 27.9844 0.803513L31.7844 6.2035C26.9844 10.0702 23.051 13.7368 19.9844 17.2035C17.051 20.5368 14.451 24.8702 12.1844 30.2035L17.9844 35.4035C21.051 37.9368 23.1177 40.4035 24.1844 42.8035C25.251 45.2035 25.7844 47.6702 25.7844 50.2035C25.7844 54.2035 24.7177 57.2035 22.5844 59.2035C20.451 61.0702 17.5844 62.0035 13.9844 62.0035C11.9844 62.0035 10.051 61.7368 8.18438 61.2035C6.45104 60.5368 4.78438 59.4702 3.18438 58.0035C1.31771 53.4702 0.384375 48.7368 0.384375 43.8035Z" fill="#276540"/>
</svg>
