<svg width="32" height="62" viewBox="0 0 32 62" fill="none" xmlns="http://www.w3.org/2000/svg">
<path d="M31.5844 18.4035C31.5844 24.2702 30.3177 29.8702 27.7844 35.2035C25.251 40.5369 21.9177 45.4035 17.7844 49.8035C13.5177 54.3369 8.9177 58.2035 3.98437 61.4035L0.18437 56.0035C4.98437 52.1369 8.9177 48.4702 11.9844 45.0035C14.9177 41.6702 17.5177 37.3369 19.7844 32.0035L13.9844 26.8035C10.9177 24.2702 8.85103 21.8035 7.78437 19.4035C6.7177 17.0035 6.18437 14.5369 6.18437 12.0035C6.18437 8.00353 7.25103 5.00352 9.38437 3.00352C11.5177 1.13685 14.3844 0.203521 17.9844 0.203521C19.9844 0.203521 21.9177 0.470188 23.7844 1.00352C25.5177 1.67019 27.1844 2.73685 28.7844 4.20352C30.651 8.73685 31.5844 13.4702 31.5844 18.4035Z" fill="#276540"/>
</svg>
